<svg width="2723" height="592" viewBox="0 0 2723 592" fill="none" xmlns="http://www.w3.org/2000/svg">
<path d="M2417.64 507.271V85.9434H2471.1V246.92C2486.21 227.161 2505 211.47 2527.47 199.847C2549.94 187.837 2574.35 181.832 2600.7 181.832C2619.29 181.832 2636.15 185.125 2651.25 191.711C2666.36 197.91 2679.15 206.821 2689.61 218.444C2700.07 230.067 2708.21 244.208 2714.02 260.867C2719.83 277.139 2722.74 295.542 2722.74 316.076V507.271H2669.27V325.374C2669.27 311.039 2667.14 298.06 2662.88 286.437C2658.62 274.427 2652.61 264.354 2644.86 256.218C2637.5 247.695 2628.59 241.108 2618.13 236.459C2608.06 231.81 2597.01 229.485 2585 229.485C2570.67 229.485 2556.53 232.779 2542.58 239.365C2529.02 245.951 2516.82 254.668 2505.97 265.516C2495.51 276.364 2486.99 288.956 2480.4 303.29C2474.2 317.238 2471.1 331.766 2471.1 346.876V507.271H2417.64Z" fill="#ffffff"/>
<path d="M2080.66 348.039C2080.66 325.18 2084.92 303.678 2093.45 283.532C2102.36 263.386 2114.37 245.758 2129.48 230.648C2144.59 215.538 2162.22 203.722 2182.36 195.198C2202.51 186.287 2224.01 181.832 2246.87 181.832C2270.5 181.832 2292.78 186.481 2313.7 195.779C2335.01 204.69 2351.86 216.701 2364.26 231.81L2342.76 278.302C2332.68 263.579 2318.93 251.956 2301.5 243.433C2284.06 234.522 2265.85 230.067 2246.87 230.067C2231.37 230.067 2217.04 233.166 2203.87 239.365C2190.69 245.176 2179.07 253.312 2169 263.773C2159.31 274.234 2151.56 286.631 2145.75 300.966C2140.33 314.914 2137.61 330.023 2137.61 346.295C2137.61 362.955 2140.52 378.452 2146.33 392.787C2152.14 407.121 2160.09 419.713 2170.16 430.561C2180.62 441.021 2192.63 449.351 2206.19 455.55C2220.14 461.749 2235.05 464.848 2250.94 464.848C2269.92 464.848 2287.36 460.78 2303.24 452.644C2319.51 444.121 2332.68 432.498 2342.76 417.776L2381.69 445.67C2366.97 466.592 2348.18 483.057 2325.32 495.068C2302.47 507.078 2277.28 513.083 2249.78 513.083C2226.14 513.083 2204.06 508.821 2183.53 500.298C2162.99 491.387 2144.98 479.57 2129.48 464.848C2114.37 449.738 2102.36 432.304 2093.45 412.545C2084.92 392.399 2080.66 370.897 2080.66 348.039Z" fill="#ffffff"/>
<path d="M1791.88 364.892C1794.2 379.227 1798.47 392.593 1804.66 404.991C1811.25 417.001 1819.39 427.461 1829.07 436.372C1839.15 445.283 1850.38 452.257 1862.78 457.293C1875.56 461.942 1889.32 464.267 1904.04 464.267C1924.96 464.267 1944.33 459.618 1962.15 450.32C1979.98 440.634 1993.92 427.461 2004 410.802L2035.96 449.157C2020.46 468.916 2001.09 484.607 1977.85 496.23C1954.6 507.465 1929.22 513.083 1901.72 513.083C1878.47 513.083 1856.58 508.821 1836.05 500.298C1815.9 491.387 1798.27 479.57 1783.16 464.848C1768.05 449.738 1756.04 432.111 1747.13 411.964C1738.61 391.818 1734.35 370.122 1734.35 346.876C1734.35 324.018 1738.41 302.71 1746.55 282.951C1755.07 262.804 1766.5 245.37 1780.84 230.648C1795.56 215.538 1812.61 203.722 1831.98 195.198C1851.35 186.287 1872.08 181.832 1894.16 181.832C1915.08 181.832 1934.45 185.706 1952.27 193.455C1970.48 200.816 1986.37 211.277 1999.93 224.837C2013.49 238.009 2024.53 253.7 2033.05 271.909C2041.96 290.118 2047.39 310.071 2049.33 331.767C2050.1 336.416 2050.29 342.034 2049.91 348.62C2049.91 355.206 2049.91 360.63 2049.91 364.892H1791.88ZM1897.07 229.486C1883.89 229.486 1871.3 231.81 1859.29 236.459C1847.67 240.721 1837.21 246.92 1827.91 255.056C1819 263.192 1811.44 272.878 1805.25 284.113C1799.05 294.961 1794.79 306.971 1792.46 320.144H1996.44C1993.73 306.971 1989.47 294.961 1983.66 284.113C1977.85 272.878 1970.68 263.192 1962.15 255.056C1953.63 246.92 1943.75 240.721 1932.52 236.459C1921.67 231.81 1909.85 229.486 1897.07 229.486Z" fill="#ffffff"/>
<path d="M1724.38 509.595C1720.12 510.37 1714.89 511.144 1708.69 511.919C1702.49 512.694 1695.91 513.082 1688.93 513.082C1654.45 513.082 1626.95 503.202 1606.41 483.443C1585.88 463.297 1575.61 435.015 1575.61 398.597V235.877H1541.91V190.548H1575.61V125.46H1629.66V190.548H1714.5V235.877H1629.66V398.597C1629.66 421.842 1636.05 439.083 1648.84 450.318C1662.01 461.554 1678.47 467.171 1698.23 467.171C1705.21 467.171 1713.54 466.203 1723.22 464.266L1724.38 509.595Z" fill="#ffffff"/>
<path fill-rule="evenodd" clip-rule="evenodd" d="M156.954 0.858887L65.642 250.117L128.789 250.117L71.5208 400.141H233.497L324.02 171.198H253.897L313.562 0.859019L156.954 0.858887ZM211.719 459.661H51.2482L0.105947 591.711H160.055L211.719 459.661Z" fill="#ffffff"/>
<path d="M1170.12 508.356V86.8521H1252.78V242.422C1266.56 230.458 1282.51 221.032 1300.64 214.143C1319.13 207.254 1338.89 203.81 1359.92 203.81C1378.04 203.81 1394.36 206.711 1408.86 212.511C1423.73 218.312 1436.41 226.651 1446.93 237.528C1457.44 248.404 1465.42 261.638 1470.86 277.228C1476.66 292.455 1479.56 309.495 1479.56 328.348V508.356H1396.9V345.75C1396.9 325.085 1390.73 308.589 1378.41 296.262C1366.08 283.572 1349.95 277.228 1330 277.228C1319.85 277.228 1310.06 279.403 1300.64 283.754C1291.21 288.104 1282.87 293.905 1275.62 301.156C1268.73 308.407 1263.11 317.109 1258.76 327.26C1254.77 337.049 1252.78 347.382 1252.78 358.258V508.356H1170.12Z" fill="#ffffff"/>
<path d="M1042.12 508.355V482.251C1029.79 492.403 1015.83 500.198 1000.24 505.636C985.015 511.074 968.337 513.793 950.209 513.793C929.906 513.793 910.872 509.805 893.107 501.829C875.342 493.49 859.752 482.432 846.337 468.655C833.285 454.516 822.953 438.019 815.339 419.167C807.725 400.314 803.918 380.011 803.918 358.257C803.918 336.867 807.725 316.926 815.339 298.436C822.953 279.583 833.285 263.269 846.337 249.491C859.752 235.351 875.342 224.293 893.107 216.317C910.872 207.978 929.906 203.809 950.209 203.809C968.337 203.809 985.015 206.528 1000.24 211.967C1015.83 217.405 1029.79 225.019 1042.12 234.808V209.247H1124.78V508.355H1042.12ZM1040.49 358.801C1040.49 347.562 1038.49 337.048 1034.5 327.259C1030.52 317.47 1024.9 308.95 1017.64 301.699C1010.76 294.085 1002.78 288.103 993.716 283.752C984.652 279.402 974.863 277.226 964.349 277.226C954.197 277.226 944.408 279.402 934.982 283.752C925.918 288.103 917.761 294.085 910.51 301.699C903.621 308.95 898.183 317.47 894.195 327.259C890.206 337.048 888.212 347.562 888.212 358.801C888.212 370.04 890.206 380.736 894.195 390.887C898.183 401.039 903.621 409.921 910.51 417.535C917.398 424.786 925.374 430.587 934.438 434.938C943.865 439.288 953.835 441.464 964.349 441.464C974.863 441.464 984.652 439.288 993.716 434.938C1003.14 430.587 1011.3 424.786 1018.19 417.535C1025.08 409.921 1030.52 401.039 1034.5 390.887C1038.49 380.736 1040.49 370.04 1040.49 358.801Z" fill="#ffffff"/>
<path fill-rule="evenodd" clip-rule="evenodd" d="M457.709 183.457V508.356H540.371V485.515C552.698 494.579 566.294 501.649 581.159 506.725C596.024 511.438 612.157 513.795 629.56 513.795C650.225 513.795 669.622 509.807 687.75 501.83C705.878 493.492 721.649 482.434 735.063 468.657C748.478 454.517 758.992 438.021 766.605 419.168C774.582 400.315 778.57 380.012 778.57 358.259C778.57 336.868 774.582 316.927 766.605 298.437C758.992 279.584 748.478 263.269 735.063 249.492C721.649 235.353 705.878 224.295 687.75 216.319C669.622 207.98 650.225 203.81 629.56 203.81C612.157 203.81 596.024 206.167 581.159 210.88C566.294 215.593 552.698 222.482 540.371 231.546V86.2183L440.009 86.2214L405.824 183.457H457.709ZM688.294 327.26C692.282 337.049 694.276 347.382 694.276 358.259C694.276 369.498 692.282 380.193 688.294 390.345C684.306 400.134 678.867 408.835 671.979 416.449C665.09 423.7 656.933 429.501 647.506 433.851C638.442 438.202 628.653 440.377 618.139 440.377C607.625 440.377 597.655 438.202 588.229 433.851C579.165 429.501 571.189 423.7 564.3 416.449C557.411 408.835 551.973 400.134 547.985 390.345C543.997 380.193 542.003 369.498 542.003 358.259C542.003 347.382 543.997 337.049 547.985 327.26C551.973 317.109 557.411 308.407 564.3 301.156C571.551 293.905 579.709 288.104 588.772 283.754C598.199 279.403 607.988 277.228 618.139 277.228C628.653 277.228 638.442 279.403 647.506 283.754C656.57 288.104 664.546 293.905 671.435 301.156C678.686 308.407 684.306 317.109 688.294 327.26Z" fill="#ffffff"/>
</svg>